<svg width="24" height="25" viewBox="0 0 24 25" fill="none" xmlns="http://www.w3.org/2000/svg">
<path d="M5.25 5C4.25544 5 3.30161 5.39509 2.59835 6.09835C1.89509 6.80161 1.5 7.75544 1.5 8.75V9.5H22.5V8.75C22.5 7.75544 22.1049 6.80161 21.4016 6.09835C20.6984 5.39509 19.7446 5 18.75 5H5.25ZM22.5 11H1.5V16.25C1.5 17.2446 1.89509 18.1984 2.59835 18.9017C3.30161 19.6049 4.25544 20 5.25 20H18.75C19.7446 20 20.6984 19.6049 21.4016 18.9017C22.1049 18.1984 22.5 17.2446 22.5 16.25V11ZM15.75 15.5H18.75C18.9489 15.5 19.1397 15.579 19.2803 15.7197C19.421 15.8603 19.5 16.0511 19.5 16.25C19.5 16.4489 19.421 16.6397 19.2803 16.7803C19.1397 16.921 18.9489 17 18.75 17H15.75C15.5511 17 15.3603 16.921 15.2197 16.7803C15.079 16.6397 15 16.4489 15 16.25C15 16.0511 15.079 15.8603 15.2197 15.7197C15.3603 15.579 15.5511 15.5 15.75 15.5Z" fill="#BB9DFB"/>
</svg>
