<svg width="24" height="25" viewBox="0 0 24 25" fill="none" xmlns="http://www.w3.org/2000/svg">
<path d="M14 8.12695V6.12695C14 5.59652 13.7893 5.08781 13.4142 4.71274C13.0391 4.33767 12.5304 4.12695 12 4.12695H5C4.46957 4.12695 3.96086 4.33767 3.58579 4.71274C3.21071 5.08781 3 5.59652 3 6.12695V18.127C3 18.6574 3.21071 19.1661 3.58579 19.5412C3.96086 19.9162 4.46957 20.127 5 20.127H12C12.5304 20.127 13.0391 19.9162 13.4142 19.5412C13.7893 19.1661 14 18.6574 14 18.127V16.127" stroke="#F2655D" stroke-width="2" stroke-linecap="round" stroke-linejoin="round"/>
<path d="M9 12.127H21M21 12.127L18 9.12695M21 12.127L18 15.127" stroke="#F2655D" stroke-width="2" stroke-linecap="round" stroke-linejoin="round"/>
</svg>
