<svg width="24" height="24" viewBox="0 0 24 24" fill="none" xmlns="http://www.w3.org/2000/svg">
<g clip-path="url(#clip0_8729_604)">
<path fill-rule="evenodd" clip-rule="evenodd" d="M12 5.25C12.3978 5.25 12.7794 5.09196 13.0607 4.81066C13.342 4.52936 13.5 4.14782 13.5 3.75C13.5 3.35218 13.342 2.97064 13.0607 2.68934C12.7794 2.40804 12.3978 2.25 12 2.25C11.6022 2.25 11.2206 2.40804 10.9393 2.68934C10.658 2.97064 10.5 3.35218 10.5 3.75C10.5 4.14782 10.658 4.52936 10.9393 4.81066C11.2206 5.09196 11.6022 5.25 12 5.25ZM12 7.81712e-08C12.8645 -0.000176363 13.7025 0.298338 14.3722 0.84502C15.0419 1.3917 15.5021 2.15298 15.675 3H19.5C19.8978 3 20.2794 3.15804 20.5607 3.43934C20.842 3.72064 21 4.10218 21 4.5V22.5C21 22.8978 20.842 23.2794 20.5607 23.5607C20.2794 23.842 19.8978 24 19.5 24H4.5C4.10218 24 3.72064 23.842 3.43934 23.5607C3.15804 23.2794 3 22.8978 3 22.5V4.5C3 4.10218 3.15804 3.72064 3.43934 3.43934C3.72064 3.15804 4.10218 3 4.5 3H8.325C8.4979 2.15298 8.95814 1.3917 9.62782 0.84502C10.2975 0.298338 11.1355 -0.000176363 12 7.81712e-08ZM10.5 7.5H15.75V5.25H18.75V21.75H5.25V5.25H8.25V7.5H10.5ZM15.795 12.42C15.9055 12.317 15.9942 12.1928 16.0557 12.0548C16.1172 11.9168 16.1502 11.7678 16.1529 11.6168C16.1556 11.4657 16.1278 11.3157 16.0712 11.1756C16.0146 11.0355 15.9304 10.9083 15.8236 10.8014C15.7167 10.6946 15.5895 10.6104 15.4494 10.5538C15.3093 10.4972 15.1593 10.4694 15.0082 10.4721C14.8572 10.4748 14.7082 10.5078 14.5702 10.5693C14.4322 10.6308 14.308 10.7195 14.205 10.83L11.25 13.785L10.545 13.08C10.3317 12.8813 10.0497 12.7731 9.75822 12.7782C9.46676 12.7834 9.18869 12.9014 8.98257 13.1076C8.77645 13.3137 8.65838 13.5918 8.65324 13.8832C8.6481 14.1747 8.75628 14.4567 8.955 14.67L10.455 16.17C10.6659 16.3807 10.9519 16.499 11.25 16.499C11.5481 16.499 11.8341 16.3807 12.045 16.17L15.795 12.42Z" fill="#894FC8"/>
</g>
<defs>
<clipPath id="clip0_8729_604">
<rect width="24" height="24" fill="white"/>
</clipPath>
</defs>
</svg>
