<svg width="22" height="23" viewBox="0 0 22 23" fill="none" xmlns="http://www.w3.org/2000/svg">
<g clip-path="url(#clip0_8651_1039)">
<path d="M18.3334 12.5937V11.127C18.3334 10.738 18.1789 10.365 17.9038 10.0899C17.6288 9.81487 17.2557 9.66035 16.8667 9.66035H2.20007C1.81108 9.66035 1.43803 9.81487 1.16298 10.0899C0.887922 10.365 0.733398 10.738 0.733398 11.127V19.927C0.733398 20.316 0.887922 20.6891 1.16298 20.9641C1.43803 21.2392 1.81108 21.3937 2.20007 21.3937H16.8667C17.2557 21.3937 17.6288 21.2392 17.9038 20.9641C18.1789 20.6891 18.3334 20.316 18.3334 19.927V18.4604M18.3334 12.5937H12.4667C11.6888 12.5937 10.9427 12.9027 10.3926 13.4528C9.84244 14.0029 9.5334 14.749 9.5334 15.527C9.5334 16.305 9.84244 17.0511 10.3926 17.6012C10.9427 18.1513 11.6888 18.4604 12.4667 18.4604H18.3334M18.3334 12.5937C19.1114 12.5937 19.8575 12.9027 20.4076 13.4528C20.9577 14.0029 21.2667 14.749 21.2667 15.527C21.2667 16.305 20.9577 17.0511 20.4076 17.6012C19.8575 18.1513 19.1114 18.4604 18.3334 18.4604M5.1334 9.66035V5.26035C5.1334 4.0934 5.59697 2.97424 6.42213 2.14908C7.24729 1.32392 8.36645 0.860352 9.5334 0.860352C10.7004 0.860352 11.8195 1.32392 12.6447 2.14908C13.4698 2.97424 13.9334 4.0934 13.9334 5.26035V9.66035M17.6001 15.527H19.0667M14.6667 15.527H16.1334M11.7334 15.527H13.2001" stroke="#8E6CEF" stroke-width="1.6"/>
</g>
<defs>
<clipPath id="clip0_8651_1039">
<rect width="22" height="22" fill="white" transform="translate(0 0.126953)"/>
</clipPath>
</defs>
</svg>
