<svg width="24" height="25" viewBox="0 0 24 25" fill="none" xmlns="http://www.w3.org/2000/svg">
<path d="M12 2.12695C6.486 2.12695 2 6.61295 2 12.127V16.27C2 17.294 2.897 18.127 4 18.127H5C5.26522 18.127 5.51957 18.0216 5.70711 17.8341C5.89464 17.6465 6 17.3922 6 17.127V11.984C6 11.7187 5.89464 11.4644 5.70711 11.2768C5.51957 11.0893 5.26522 10.984 5 10.984H4.092C4.648 7.11395 7.978 4.12695 12 4.12695C16.022 4.12695 19.352 7.11395 19.908 10.984H19C18.7348 10.984 18.4804 11.0893 18.2929 11.2768C18.1054 11.4644 18 11.7187 18 11.984V18.127C18 19.23 17.103 20.127 16 20.127H14V19.127H10V22.127H16C18.206 22.127 20 20.333 20 18.127C21.103 18.127 22 17.294 22 16.27V12.127C22 6.61295 17.514 2.12695 12 2.12695Z" fill="#8E6CEF"/>
</svg>
