<svg width="24" height="24" viewBox="0 0 24 24" fill="none" xmlns="http://www.w3.org/2000/svg">
<path d="M17.2853 10.679C19.4748 10.679 21.2498 8.90403 21.2498 6.7145C21.2498 4.52497 19.4748 2.75 17.2853 2.75C15.0958 2.75 13.3208 4.52497 13.3208 6.7145C13.3208 8.90403 15.0958 10.679 17.2853 10.679Z" stroke="#EF5DA8" stroke-width="2" stroke-linecap="round" stroke-linejoin="round"/>
<path d="M2.75 10.6785V4.73298C2.75 3.74048 3.6755 2.75098 4.7325 2.75098C5.792 2.75098 6.715 3.73998 6.715 4.73298V10.6785" stroke="#EF5DA8" stroke-width="2" stroke-linecap="round" stroke-linejoin="round"/>
<path d="M6.7145 4.73298C6.7145 3.74048 7.6395 2.75098 8.6965 2.75098C9.756 2.75098 10.679 3.73998 10.679 4.73298V10.6785M2.75 21.2505V15.3045C2.75 14.312 3.675 13.322 4.732 13.322C5.7915 13.322 6.7145 14.3115 6.7145 15.3045M6.7145 15.3045V21.2505M6.7145 15.3045C6.7145 14.312 7.6395 13.322 8.6965 13.322C9.756 13.322 10.679 14.3115 10.679 15.3045V21.2505" stroke="#EF5DA8" stroke-width="2" stroke-linecap="round" stroke-linejoin="round"/>
<path d="M17.2853 21.2503C19.4748 21.2503 21.2498 19.4753 21.2498 17.2858C21.2498 15.0963 19.4748 13.3213 17.2853 13.3213C15.0958 13.3213 13.3208 15.0963 13.3208 17.2858C13.3208 19.4753 15.0958 21.2503 17.2853 21.2503Z" stroke="#EF5DA8" stroke-width="2" stroke-linecap="round" stroke-linejoin="round"/>
</svg>
