<svg width="24" height="24" viewBox="0 0 24 24" fill="none" xmlns="http://www.w3.org/2000/svg">
<path d="M19.5002 11.5C18.4802 8.48 17.2042 7.5 13.4302 7.5H9.65018C5.74518 7.5 4.23518 8.488 3.15518 12.237C2.18218 15.614 1.69518 17.303 2.20518 18.612C2.52284 19.4218 3.07599 20.1178 3.79318 20.61C5.24018 21.61 8.98018 22.084 12.5002 21.988" stroke="#F7F7F7" stroke-width="1.5" stroke-linecap="round" stroke-linejoin="round"/>
<path d="M7 8V6.364C7 3.954 9.015 2 11.5 2C13.985 2 16 3.954 16 6.364V8M14 18H22M18 22V14M10.5 11H12.5" stroke="#F7F7F7" stroke-width="1.5" stroke-linecap="round" stroke-linejoin="round"/>
</svg>
