<svg width="21" height="20" viewBox="0 0 21 20" fill="none" xmlns="http://www.w3.org/2000/svg">
<path fill-rule="evenodd" clip-rule="evenodd" d="M8.26492 0.998648C8.54625 0.684441 8.89067 0.433097 9.27571 0.261019C9.66076 0.0889416 10.0778 0 10.4995 0C10.9212 0 11.3382 0.0889416 11.7233 0.261019C12.1083 0.433097 12.4528 0.684441 12.7341 0.998648L13.434 1.78052C13.534 1.89241 13.6579 1.98035 13.7965 2.03781C13.9352 2.09528 14.085 2.12079 14.2348 2.11247L15.2846 2.05448C15.7056 2.03136 16.1267 2.09725 16.5205 2.24785C16.9143 2.39845 17.2719 2.63038 17.57 2.92851C17.8681 3.22664 18.1001 3.58426 18.2507 3.97807C18.4013 4.37187 18.4671 4.793 18.444 5.21398L18.386 6.26381C18.3779 6.4135 18.4034 6.5631 18.4609 6.70155C18.5184 6.84001 18.6062 6.96377 18.718 7.06369L19.5008 7.76358C19.8152 8.04492 20.0667 8.38941 20.2388 8.77456C20.411 9.15971 20.5 9.57684 20.5 9.99872C20.5 10.4206 20.411 10.8377 20.2388 11.2229C20.0667 11.608 19.8152 11.9525 19.5008 12.2339L18.718 12.9338C18.6061 13.0338 18.5181 13.1577 18.4607 13.2963C18.4032 13.435 18.3777 13.5848 18.386 13.7346L18.444 14.7845C18.4671 15.2054 18.4013 15.6266 18.2507 16.0204C18.1001 16.4142 17.8681 16.7718 17.57 17.0699C17.2719 17.3681 16.9143 17.6 16.5205 17.7506C16.1267 17.9012 15.7056 17.9671 15.2846 17.944L14.2348 17.886C14.0851 17.8778 13.9355 17.9034 13.7971 17.9608C13.6586 18.0183 13.5349 18.1062 13.435 18.2179L12.7351 19.0008C12.4537 19.3152 12.1093 19.5667 11.7241 19.7388C11.339 19.911 10.9219 20 10.5 20C10.0781 20 9.66101 19.911 9.27587 19.7388C8.89074 19.5667 8.54625 19.3152 8.26492 19.0008L7.56505 18.2179C7.46503 18.106 7.34111 18.0181 7.20247 17.9606C7.06383 17.9032 6.91404 17.8776 6.7642 17.886L5.71439 17.944C5.29342 17.9671 4.87231 17.9012 4.47852 17.7506C4.08472 17.6 3.7271 17.3681 3.42898 17.0699C3.13086 16.7718 2.89894 16.4142 2.74835 16.0204C2.59775 15.6266 2.53186 15.2054 2.55498 14.7845L2.61297 13.7346C2.62114 13.5849 2.59555 13.4353 2.53809 13.2969C2.48064 13.1584 2.39278 13.0347 2.28103 12.9348L1.49918 12.2349C1.18482 11.9535 0.933337 11.609 0.761165 11.2239C0.588992 10.8387 0.5 10.4216 0.5 9.99972C0.5 9.57784 0.588992 9.16071 0.761165 8.77556C0.933337 8.39041 1.18482 8.04592 1.49918 7.76458L2.28103 7.06469C2.39292 6.96466 2.48085 6.84074 2.53832 6.7021C2.59578 6.56346 2.62129 6.41366 2.61297 6.26381L2.55498 5.21398C2.53186 4.793 2.59775 4.37187 2.74835 3.97807C2.89894 3.58426 3.13086 3.22664 3.42898 2.92851C3.7271 2.63038 4.08472 2.39845 4.47852 2.24785C4.87231 2.09725 5.29342 2.03136 5.71439 2.05448L6.7642 2.11247C6.91387 2.12064 7.06347 2.09505 7.20193 2.03759C7.34038 1.98013 7.46414 1.89228 7.56405 1.78052L8.26492 0.998648ZM14.2058 6.29281C14.3932 6.48031 14.4985 6.73457 14.4985 6.9997C14.4985 7.26482 14.3932 7.51909 14.2058 7.70658L8.20693 13.7056C8.01836 13.8878 7.76581 13.9885 7.50366 13.9863C7.24151 13.984 6.99074 13.8788 6.80537 13.6935C6.62 13.5081 6.51485 13.2573 6.51257 12.9951C6.51029 12.733 6.61107 12.4804 6.79319 12.2919L12.7921 6.29281C12.9796 6.10537 13.2338 6.00007 13.4989 6.00007C13.7641 6.00007 14.0183 6.10537 14.2058 6.29281ZM7.99997 5.99986C7.60222 5.99986 7.22076 6.15787 6.9395 6.43913C6.65825 6.72039 6.50025 7.10186 6.50025 7.49962V7.50962C6.50025 7.90738 6.65825 8.28885 6.9395 8.57011C7.22076 8.85137 7.60222 9.00938 7.99997 9.00938H8.00996C8.40772 9.00938 8.78918 8.85137 9.07043 8.57011C9.35168 8.28885 9.50969 7.90738 9.50969 7.50962V7.49962C9.50969 7.10186 9.35168 6.72039 9.07043 6.43913C8.78918 6.15787 8.40772 5.99986 8.00996 5.99986H7.99997ZM12.999 10.9991C12.6013 10.9991 12.2198 11.1571 11.9386 11.4383C11.6573 11.7196 11.4993 12.1011 11.4993 12.4988V12.5088C11.4993 12.9066 11.6573 13.2881 11.9386 13.5693C12.2198 13.8506 12.6013 14.0086 12.999 14.0086H13.009C13.4068 14.0086 13.7882 13.8506 14.0695 13.5693C14.3507 13.2881 14.5088 12.9066 14.5088 12.5088V12.4988C14.5088 12.1011 14.3507 11.7196 14.0695 11.4383C13.7882 11.1571 13.4068 10.9991 13.009 10.9991H12.999Z" fill="white"/>
</svg>
