<svg width="13" height="15" viewBox="0 0 13 15" fill="none" xmlns="http://www.w3.org/2000/svg">
<path d="M10.8999 0.901367C11.6333 0.901367 12.2333 1.50137 12.2333 2.2347V3.70137C12.2333 4.2347 11.8999 4.90137 11.5666 5.2347L8.69993 7.76803C8.29993 8.10137 8.03327 8.76803 8.03327 9.30137V12.168C8.03327 12.568 7.7666 13.1014 7.43327 13.3014L6.49994 13.9014C5.63327 14.4347 4.43327 13.8347 4.43327 12.768V9.2347C4.43327 8.76803 4.1666 8.16803 3.89994 7.8347L1.3666 5.16803C1.03327 4.8347 0.766602 4.2347 0.766602 3.8347V2.30137C0.766602 1.50137 1.3666 0.901367 2.09993 0.901367H8.09994M5.7866 0.901367L2.49993 6.16803" stroke="white" stroke-width="1.5" stroke-miterlimit="10" stroke-linecap="round" stroke-linejoin="round"/>
</svg>
