<svg width="25" height="24" viewBox="0 0 25 24" fill="none" xmlns="http://www.w3.org/2000/svg">
<path d="M15.4995 18.3C15.0495 18.3 14.7495 18.15 14.2995 18L12.4995 17.25L10.6995 18C10.3995 18.15 9.94953 18.3 9.49953 18.3C9.19953 18.3 9.04953 18.3 8.74953 18.15L7.99953 24L12.4995 21L16.9995 24L16.0995 18.15C15.9495 18.3 15.6495 18.3 15.4995 18.3ZM19.8495 8.85C19.6995 8.55 19.6995 8.1 19.8495 7.8L20.7495 6C21.0495 5.4 20.7495 4.65 19.9995 4.35L18.0495 3.6C17.7495 3.45 17.4495 3.15 17.2995 2.85L16.5495 0.9C16.3995 0.3 15.9495 0 15.4995 0C15.3495 0 15.0495 0 14.8995 0.15L12.9495 1.05H12.4995C12.3495 1.05 12.1995 1.05 12.0495 0.9L10.0995 0.15C9.94953 0 9.64953 0 9.49953 0C9.04953 0 8.59953 0.3 8.29953 0.75L7.54953 2.85C7.54953 3.15 7.24953 3.45 6.94953 3.6L4.84953 4.35C4.24953 4.5 3.94953 5.25 4.24953 6L5.14953 7.95C5.29953 8.25 5.29953 8.7 5.14953 9L4.24953 10.8C3.94953 11.4 4.24953 12.15 4.99953 12.45L6.94953 13.2C7.24953 13.35 7.54953 13.65 7.69953 13.95L8.44953 15.9C8.59953 16.5 9.04953 16.8 9.49953 16.8C9.64953 16.8 9.79953 16.8 9.94953 16.65L11.8995 15.75C12.0495 15.75 12.1995 15.6 12.3495 15.6C12.4995 15.6 12.6495 15.6 12.7995 15.75L14.7495 16.65C14.8995 16.8 15.0495 16.8 15.1995 16.8C15.6495 16.8 16.0995 16.5 16.3995 16.05L17.1495 14.1C17.2995 13.8 17.5995 13.5 17.8995 13.35L19.8495 12.6C20.4495 12.3 20.8995 11.55 20.5995 10.95L19.8495 8.85ZM12.4995 14.4C9.19953 14.4 6.49953 11.7 6.49953 8.4C6.49953 5.1 9.19953 2.4 12.4995 2.4C15.7995 2.4 18.4995 5.1 18.4995 8.4C18.4995 11.7 15.7995 14.4 12.4995 14.4Z" fill="#BB9DFB"/>
<path d="M17 8.40039C17 9.59386 16.5259 10.7385 15.682 11.5824C14.8381 12.4263 13.6935 12.9004 12.5 12.9004C11.3065 12.9004 10.1619 12.4263 9.31802 11.5824C8.47411 10.7385 8 9.59386 8 8.40039C8 7.20692 8.47411 6.06232 9.31802 5.21841C10.1619 4.3745 11.3065 3.90039 12.5 3.90039C13.6935 3.90039 14.8381 4.3745 15.682 5.21841C16.5259 6.06232 17 7.20692 17 8.40039Z" fill="#BB9DFB"/>
</svg>
