<svg width="41" height="40" viewBox="0 0 41 40" fill="none" xmlns="http://www.w3.org/2000/svg">
<path d="M20.6664 14.441V17.771M29.2564 23.17C29.9864 24.39 29.4064 25.97 28.0564 26.42C23.2752 28.01 18.1077 28.01 13.3264 26.42C11.8864 25.94 11.3364 24.48 12.1264 23.17L13.3964 21.05C13.7464 20.47 14.0264 19.44 14.0264 18.77V16.67C14.0251 15.7946 14.1964 14.9274 14.5305 14.1183C14.8646 13.3091 15.355 12.5737 15.9736 11.9542C16.5921 11.3347 17.3268 10.8432 18.1355 10.5079C18.9441 10.1726 19.811 10 20.6864 10C24.3464 10 27.3464 13 27.3464 16.66V18.76C27.3464 18.94 27.3664 19.14 27.3964 19.35" stroke="#272727" stroke-opacity="0.5" stroke-width="1.5" stroke-miterlimit="10" stroke-linecap="round"/>
<path d="M23.9964 26.8198C23.9964 28.6498 22.4964 30.1498 20.6664 30.1498C19.7564 30.1498 18.9164 29.7698 18.3164 29.1698C17.7164 28.5698 17.3364 27.7298 17.3364 26.8198" stroke="#272727" stroke-opacity="0.5" stroke-width="1.5" stroke-miterlimit="10"/>
</svg>
