<svg width="27" height="25" viewBox="0 0 27 25" fill="none" xmlns="http://www.w3.org/2000/svg">
<g clip-path="url(#clip0_8663_387)">
<path d="M14.1937 14.752C15.6984 12.8723 19.125 8.31133 19.125 5.75195C19.125 2.64414 16.6078 0.126953 13.5 0.126953C10.3922 0.126953 7.875 2.64414 7.875 5.75195C7.875 8.31133 11.3016 12.8723 12.8063 14.752C13.1672 15.202 13.8375 15.202 14.1937 14.752ZM19.5 23.7051L26.2922 20.9863C26.7188 20.8176 27 20.4004 27 19.941V7.25195C27 6.45508 26.1984 5.91133 25.4578 6.20664L20.0203 8.38164C19.9969 8.43789 19.9734 8.49883 19.95 8.55508C19.8141 8.87383 19.6641 9.19727 19.5 9.5207V23.7051ZM0.707813 8.90664C0.28125 9.08008 0 9.49258 0 9.95195V22.6457C0 23.4426 0.801563 23.9863 1.54219 23.691L7.5 21.3051V9.5207C7.33594 9.19727 7.18594 8.87383 7.05 8.55508C6.7875 7.93633 6.5625 7.2707 6.45 6.60977L0.703125 8.90664H0.707813ZM18 12.0801C17.0391 13.5473 16.0172 14.8738 15.3656 15.6895C14.4047 16.8895 12.5953 16.8895 11.6344 15.6895C10.9828 14.8738 9.96094 13.5473 9 12.0801V21.1926L18 23.766V12.0801Z" fill="#8E6CEF"/>
</g>
<defs>
<clipPath id="clip0_8663_387">
<rect width="27" height="24" fill="white" transform="translate(0 0.126953)"/>
</clipPath>
</defs>
</svg>
