<svg width="24" height="25" viewBox="0 0 24 25" fill="none" xmlns="http://www.w3.org/2000/svg">
<path d="M8.5 16.3462C8.5 16.4788 8.44732 16.606 8.35355 16.6997C8.25979 16.7935 8.13261 16.8462 8 16.8462C7.86739 16.8462 7.74021 16.7935 7.64645 16.6997C7.55268 16.606 7.5 16.4788 7.5 16.3462C7.5 16.2136 7.55268 16.0864 7.64645 15.9926C7.74022 15.8989 7.86739 15.8462 8 15.8462C8.13261 15.8462 8.25978 15.8989 8.35355 15.9926C8.44732 16.0864 8.5 16.2136 8.5 16.3462ZM12.5 16.3462C12.5 16.4788 12.4473 16.606 12.3536 16.6997C12.2598 16.7935 12.1326 16.8462 12 16.8462C11.8674 16.8462 11.7402 16.7935 11.6464 16.6997C11.5527 16.606 11.5 16.4788 11.5 16.3462C11.5 16.2136 11.5527 16.0864 11.6464 15.9926C11.7402 15.8989 11.8674 15.8462 12 15.8462C12.1326 15.8462 12.2598 15.8989 12.3536 15.9926C12.4473 16.0864 12.5 16.2136 12.5 16.3462ZM16.5 16.3462C16.5 16.4788 16.4473 16.606 16.3536 16.6997C16.2598 16.7935 16.1326 16.8462 16 16.8462C15.8674 16.8462 15.7402 16.7935 15.6464 16.6997C15.5527 16.606 15.5 16.4788 15.5 16.3462C15.5 16.2136 15.5527 16.0864 15.6464 15.9926C15.7402 15.8989 15.8674 15.8462 16 15.8462C16.1326 15.8462 16.2598 15.8989 16.3536 15.9926C16.4473 16.0864 16.5 16.2136 16.5 16.3462Z" stroke="#A9A9AA" stroke-opacity="0.9"/>
<path d="M6 10.3461V8.34608C6 8.00541 6.02767 7.67208 6.083 7.34608M18 10.3461V8.34608C18.0001 7.12732 17.629 5.93743 16.9361 4.93477C16.2433 3.93211 15.2615 3.16422 14.1215 2.73328C12.9815 2.30235 11.7372 2.22882 10.5544 2.52246C9.37152 2.81611 8.30613 3.46301 7.5 4.37708M11 22.3461H8C5.172 22.3461 3.757 22.3461 2.879 21.4671C2 20.5891 2 19.1741 2 16.3461C2 13.5181 2 12.1031 2.879 11.2251C3.757 10.3461 5.172 10.3461 8 10.3461H16C18.828 10.3461 20.243 10.3461 21.121 11.2251C22 12.1031 22 13.5181 22 16.3461C22 19.1741 22 20.5891 21.121 21.4671C20.243 22.3461 18.828 22.3461 16 22.3461H15" stroke="#A9A9AA" stroke-opacity="0.9" stroke-width="1.5" stroke-linecap="round"/>
</svg>
