<svg width="16" height="17" viewBox="0 0 16 17" fill="none" xmlns="http://www.w3.org/2000/svg">
<path d="M4.99988 5.61324V4.96658C4.99988 3.46658 6.20655 1.99324 7.70655 1.85324C8.12333 1.81229 8.54407 1.85906 8.94169 1.99053C9.33931 2.12201 9.70499 2.33527 10.0152 2.61661C10.3254 2.89794 10.5733 3.24111 10.7429 3.62402C10.9125 4.00694 11 4.42112 10.9999 4.83991V5.75991M2.53988 11.5399L2.69322 12.7866C2.83988 14.0932 3.31988 15.1666 5.99988 15.1666H9.99988C12.6799 15.1666 13.1599 14.0932 13.2999 12.7866L13.7999 8.78658C13.9799 7.15991 13.5132 5.83324 10.6666 5.83324H5.33322C2.48655 5.83324 2.01988 7.15991 2.19988 8.78658" stroke="#894FC8" stroke-width="1.5" stroke-miterlimit="10" stroke-linecap="round" stroke-linejoin="round"/>
<path d="M10.3302 8.5H10.3362M5.66357 8.5H5.66891" stroke="#894FC8" stroke-width="2" stroke-linecap="round" stroke-linejoin="round"/>
</svg>
