<svg width="41" height="40" viewBox="0 0 41 40" fill="none" xmlns="http://www.w3.org/2000/svg">
<path d="M28.8335 15.04C28.8335 11.01 27.8935 10 24.1135 10H16.5535C12.7735 10 11.8335 11.01 11.8335 15.04V26.3C11.8335 28.96 13.2935 29.59 15.0635 27.69L15.0735 27.68C15.8935 26.81 17.1435 26.88 17.8535 27.83L18.8635 29.18C19.6735 30.25 20.9835 30.25 21.7935 29.18L22.8035 27.83C23.5235 26.87 24.7735 26.8 25.5935 27.68C27.3735 29.58 28.8235 28.95 28.8235 26.29V19M16.3335 15H24.3335M17.3335 19H23.3335" stroke="#272727" stroke-opacity="0.5" stroke-width="1.5" stroke-linecap="round" stroke-linejoin="round"/>
</svg>
