<svg width="25" height="25" viewBox="0 0 25 25" fill="none" xmlns="http://www.w3.org/2000/svg">
<path d="M10.1218 3.64663L18.2186 11.9529C18.3608 12.0988 18.4404 12.2945 18.4404 12.4982C18.4404 12.7019 18.3608 12.8976 18.2186 13.0435L10.1218 21.3529C10.0555 21.4209 9.97631 21.475 9.88882 21.5119C9.80134 21.5488 9.70734 21.5679 9.61238 21.5679C9.51742 21.5679 9.42342 21.5488 9.33594 21.5119C9.24845 21.475 9.16925 21.4209 9.10301 21.3529C8.96671 21.2134 8.8904 21.026 8.8904 20.831C8.8904 20.636 8.96671 20.4486 9.10301 20.3091L16.7171 12.4982L9.10301 4.68881C8.96718 4.54936 8.89117 4.36239 8.89117 4.16772C8.89117 3.97305 8.96718 3.78608 9.10301 3.64663C9.16925 3.57859 9.24845 3.52451 9.33594 3.48759C9.42342 3.45066 9.51742 3.43164 9.61238 3.43164C9.70734 3.43164 9.80134 3.45066 9.88882 3.48759C9.97631 3.52451 10.0555 3.57859 10.1218 3.64663Z" fill="#1E1E1E"/>
</svg>
