<svg width="24" height="25" viewBox="0 0 24 25" fill="none" xmlns="http://www.w3.org/2000/svg">
<path d="M14.6589 20.5099L13.1389 22.0299C12.5189 22.6499 11.4989 22.6499 10.8789 22.0299L9.35893 20.5099C9.09893 20.2499 8.58893 20.0399 8.22893 20.0399H6.07893C5.19893 20.0399 4.47893 19.3199 4.47893 18.4399V16.2899C4.47893 15.9299 4.26893 15.4199 4.00893 15.1599L2.48893 13.6399C1.86893 13.0199 1.86893 11.9999 2.48893 11.3799L4.00893 9.85991C4.26893 9.59991 4.47893 9.08991 4.47893 8.72991V6.57991C4.47893 5.69991 5.19893 4.97991 6.07893 4.97991M9.33993 4.48891L10.8599 2.96891C11.4799 2.34891 12.4999 2.34891 13.1199 2.96891L14.6399 4.48891C14.8999 4.74891 15.4099 4.95891 15.7699 4.95891H17.9199C18.7999 4.95891 19.5199 5.67891 19.5199 6.55891V8.70891C19.5199 9.06891 19.7299 9.57891 19.9899 9.83891L21.5099 11.3589C22.1299 11.9789 22.1299 12.9989 21.5099 13.6189L19.9899 15.1389C19.7299 15.3989 19.5199 15.9089 19.5199 16.2689V18.4189C19.5199 19.2989 18.7999 20.0189 17.9199 20.0189M8.99993 15.4999L14.9999 9.49991" stroke="#894FC8" stroke-width="1.5" stroke-linecap="round" stroke-linejoin="round"/>
<path d="M14.4951 15H14.5041M9.49512 10H9.50312" stroke="#894FC8" stroke-width="2" stroke-linecap="round" stroke-linejoin="round"/>
</svg>
