<svg width="20" height="21" viewBox="0 0 20 21" fill="none" xmlns="http://www.w3.org/2000/svg">
<path d="M9.58317 18.6253C4.87484 18.6253 1.0415 14.792 1.0415 10.0837C1.0415 5.37533 4.87484 1.54199 9.58317 1.54199C14.2915 1.54199 18.1248 5.37533 18.1248 10.0837C18.1248 14.792 14.2915 18.6253 9.58317 18.6253ZM9.58317 2.79199C5.55817 2.79199 2.2915 6.06699 2.2915 10.0837C2.2915 14.1003 5.55817 17.3753 9.58317 17.3753C13.6082 17.3753 16.8748 14.1003 16.8748 10.0837C16.8748 6.06699 13.6082 2.79199 9.58317 2.79199Z" fill="#EAE1FD"/>
<path d="M18.3335 19.4585C18.1752 19.4585 18.0169 19.4002 17.8919 19.2752L16.2252 17.6085C15.9835 17.3669 15.9835 16.9669 16.2252 16.7252C16.4669 16.4835 16.8669 16.4835 17.1085 16.7252L18.7752 18.3919C19.0169 18.6335 19.0169 19.0335 18.7752 19.2752C18.6502 19.4002 18.4919 19.4585 18.3335 19.4585Z" fill="#EAE1FD"/>
</svg>
